<mxfile host="app.diagrams.net" agent="Mozilla/5.0 (Macintosh; Intel Mac OS X 10_15_7) AppleWebKit/537.36 (KHTML, like Gecko) Chrome/132.0.0.0 Safari/537.36" version="26.0.4">
  <diagram name="Page-1" id="nIP6v7QgHJplHmjcwIbG">
    <mxGraphModel dx="2671" dy="1900" grid="1" gridSize="10" guides="1" tooltips="1" connect="1" arrows="1" fold="1" page="1" pageScale="1" pageWidth="850" pageHeight="1100" math="0" shadow="0">
      <root>
        <mxCell id="0" />
        <mxCell id="1" parent="0" />
        <mxCell id="eF2tWXIyQ_C8vqJGPr6X-1" value="" style="whiteSpace=wrap;html=1;aspect=fixed;" parent="1" vertex="1">
          <mxGeometry x="280" y="250" width="240" height="240" as="geometry" />
        </mxCell>
        <mxCell id="eF2tWXIyQ_C8vqJGPr6X-2" value="" style="rounded=0;whiteSpace=wrap;html=1;fillColor=#dae8fc;strokeColor=#6c8ebf;" parent="1" vertex="1">
          <mxGeometry x="330" y="320" width="140" height="20" as="geometry" />
        </mxCell>
        <mxCell id="eF2tWXIyQ_C8vqJGPr6X-3" value="" style="rounded=0;whiteSpace=wrap;html=1;fillColor=#dae8fc;strokeColor=#6c8ebf;" parent="1" vertex="1">
          <mxGeometry x="330" y="350" width="140" height="20" as="geometry" />
        </mxCell>
        <mxCell id="eF2tWXIyQ_C8vqJGPr6X-4" value="" style="rounded=0;whiteSpace=wrap;html=1;fillColor=#dae8fc;strokeColor=#6c8ebf;" parent="1" vertex="1">
          <mxGeometry x="330" y="380" width="140" height="20" as="geometry" />
        </mxCell>
        <mxCell id="eF2tWXIyQ_C8vqJGPr6X-5" value="" style="rounded=0;whiteSpace=wrap;html=1;fillColor=#dae8fc;strokeColor=#6c8ebf;" parent="1" vertex="1">
          <mxGeometry x="330" y="410" width="140" height="20" as="geometry" />
        </mxCell>
        <mxCell id="eF2tWXIyQ_C8vqJGPr6X-6" value="" style="endArrow=classic;html=1;rounded=0;" parent="1" edge="1">
          <mxGeometry width="50" height="50" relative="1" as="geometry">
            <mxPoint x="399.5" y="440" as="sourcePoint" />
            <mxPoint x="400" y="470" as="targetPoint" />
          </mxGeometry>
        </mxCell>
        <mxCell id="eF2tWXIyQ_C8vqJGPr6X-7" value="" style="rounded=0;whiteSpace=wrap;html=1;fillColor=#dae8fc;strokeColor=#6c8ebf;" parent="1" vertex="1">
          <mxGeometry x="330" y="290" width="140" height="20" as="geometry" />
        </mxCell>
        <mxCell id="eF2tWXIyQ_C8vqJGPr6X-8" value="" style="rounded=0;whiteSpace=wrap;html=1;fillColor=#dae8fc;strokeColor=#6c8ebf;" parent="1" vertex="1">
          <mxGeometry x="330" y="260" width="140" height="20" as="geometry" />
        </mxCell>
        <mxCell id="eF2tWXIyQ_C8vqJGPr6X-9" value="" style="rounded=0;whiteSpace=wrap;html=1;fillColor=#f5f5f5;strokeColor=#666666;fontColor=#333333;" parent="1" vertex="1">
          <mxGeometry x="330" y="130" width="140" height="20" as="geometry" />
        </mxCell>
        <mxCell id="eF2tWXIyQ_C8vqJGPr6X-10" value="" style="rounded=0;whiteSpace=wrap;html=1;fillColor=#f5f5f5;strokeColor=#666666;fontColor=#333333;" parent="1" vertex="1">
          <mxGeometry x="330" y="100" width="140" height="20" as="geometry" />
        </mxCell>
        <mxCell id="eF2tWXIyQ_C8vqJGPr6X-11" value="" style="rounded=0;whiteSpace=wrap;html=1;" parent="1" vertex="1">
          <mxGeometry x="330" y="620" width="140" height="20" as="geometry" />
        </mxCell>
        <mxCell id="eF2tWXIyQ_C8vqJGPr6X-12" value="" style="rounded=0;whiteSpace=wrap;html=1;" parent="1" vertex="1">
          <mxGeometry x="330" y="590" width="140" height="20" as="geometry" />
        </mxCell>
        <mxCell id="eF2tWXIyQ_C8vqJGPr6X-13" value="" style="rounded=0;whiteSpace=wrap;html=1;" parent="1" vertex="1">
          <mxGeometry x="330" y="560" width="140" height="20" as="geometry" />
        </mxCell>
        <mxCell id="eF2tWXIyQ_C8vqJGPr6X-14" value="" style="rounded=0;whiteSpace=wrap;html=1;" parent="1" vertex="1">
          <mxGeometry x="330" y="530" width="140" height="20" as="geometry" />
        </mxCell>
        <mxCell id="eF2tWXIyQ_C8vqJGPr6X-16" value="To fetch:" style="text;html=1;align=center;verticalAlign=middle;whiteSpace=wrap;rounded=0;" parent="1" vertex="1">
          <mxGeometry x="370" y="500" width="60" height="30" as="geometry" />
        </mxCell>
        <mxCell id="eF2tWXIyQ_C8vqJGPr6X-17" value="Out of screen unrendered" style="text;html=1;align=center;verticalAlign=middle;whiteSpace=wrap;rounded=0;" parent="1" vertex="1">
          <mxGeometry x="355" y="160" width="90" height="30" as="geometry" />
        </mxCell>
        <mxCell id="eF2tWXIyQ_C8vqJGPr6X-19" value="" style="endArrow=classic;html=1;rounded=0;" parent="1" edge="1">
          <mxGeometry width="50" height="50" relative="1" as="geometry">
            <mxPoint x="395" y="240" as="sourcePoint" />
            <mxPoint x="395" y="200" as="targetPoint" />
          </mxGeometry>
        </mxCell>
        <mxCell id="eF2tWXIyQ_C8vqJGPr6X-20" value="" style="whiteSpace=wrap;html=1;aspect=fixed;" parent="1" vertex="1">
          <mxGeometry x="640" y="230" width="340" height="340" as="geometry" />
        </mxCell>
        <mxCell id="eF2tWXIyQ_C8vqJGPr6X-33" value="" style="whiteSpace=wrap;html=1;aspect=fixed;fillColor=#d5e8d4;strokeColor=#82b366;" parent="1" vertex="1">
          <mxGeometry x="655" y="260" width="310" height="310" as="geometry" />
        </mxCell>
        <mxCell id="eF2tWXIyQ_C8vqJGPr6X-26" value="" style="whiteSpace=wrap;html=1;aspect=fixed;" parent="1" vertex="1">
          <mxGeometry x="690" y="270" width="240" height="240" as="geometry" />
        </mxCell>
        <mxCell id="eF2tWXIyQ_C8vqJGPr6X-21" value="Card" style="rounded=0;whiteSpace=wrap;html=1;" parent="1" vertex="1">
          <mxGeometry x="760" y="310" width="120" height="50" as="geometry" />
        </mxCell>
        <mxCell id="eF2tWXIyQ_C8vqJGPr6X-27" value="List component" style="text;html=1;align=center;verticalAlign=middle;whiteSpace=wrap;rounded=0;" parent="1" vertex="1">
          <mxGeometry x="690" y="270" width="110" height="30" as="geometry" />
        </mxCell>
        <mxCell id="eF2tWXIyQ_C8vqJGPr6X-30" value="" style="rounded=0;whiteSpace=wrap;html=1;fillColor=#f5f5f5;fontColor=#333333;strokeColor=#666666;" parent="1" vertex="1">
          <mxGeometry x="720" y="410" width="200" height="90" as="geometry" />
        </mxCell>
        <mxCell id="eF2tWXIyQ_C8vqJGPr6X-23" value="Card" style="rounded=0;whiteSpace=wrap;html=1;" parent="1" vertex="1">
          <mxGeometry x="760" y="380" width="120" height="50" as="geometry" />
        </mxCell>
        <mxCell id="eF2tWXIyQ_C8vqJGPr6X-28" value="Page ( accessed by router)" style="text;html=1;align=center;verticalAlign=middle;whiteSpace=wrap;rounded=0;" parent="1" vertex="1">
          <mxGeometry x="650" y="230" width="150" height="30" as="geometry" />
        </mxCell>
        <mxCell id="eF2tWXIyQ_C8vqJGPr6X-32" value="Loader" style="text;html=1;align=center;verticalAlign=middle;whiteSpace=wrap;rounded=0;" parent="1" vertex="1">
          <mxGeometry x="790" y="440" width="60" height="30" as="geometry" />
        </mxCell>
      </root>
    </mxGraphModel>
  </diagram>
</mxfile>
